<svg id="Layer_1" data-name="Layer 1" xmlns="http://www.w3.org/2000/svg" viewBox="0 0 344 63"><defs><style>.cls-1{fill:#3948ff;}</style></defs><title>logo</title><path class="cls-1" d="M33.09,52.43a23.82,23.82,0,0,1-9.6,1.83,22.38,22.38,0,0,1-8.42-1.52,19.4,19.4,0,0,1-6.53-4.22A19.15,19.15,0,0,1,4.29,42.1,21.24,21.24,0,0,1,2.77,34v-.12A20.15,20.15,0,0,1,15.16,15.11a20.89,20.89,0,0,1,8.27-1.61,29.52,29.52,0,0,1,4.82.37,22.71,22.71,0,0,1,4,1,18.45,18.45,0,0,1,3.49,1.69,26.46,26.46,0,0,1,3.15,2.31L33.45,25.5a20.64,20.64,0,0,0-2.25-1.69,14.92,14.92,0,0,0-2.33-1.24,13.81,13.81,0,0,0-2.62-.79,15.66,15.66,0,0,0-3.1-.28,10.07,10.07,0,0,0-4.42,1,11.92,11.92,0,0,0-3.6,2.65A12.22,12.22,0,0,0,12.71,29a13,13,0,0,0-.87,4.77v.11a13.87,13.87,0,0,0,.87,5,11.7,11.7,0,0,0,2.48,4A11.2,11.2,0,0,0,19,45.51a12.07,12.07,0,0,0,4.81.93,13.72,13.72,0,0,0,8.17-2.38V38.39H23.21V30.9H40.32V48A28.91,28.91,0,0,1,33.09,52.43Z"/><path class="cls-1" d="M72.58,53.59,64.14,41H57.32V53.59H48.65V14.18h18q7,0,11,3.43t3.91,9.57v.12a12.31,12.31,0,0,1-2.34,7.79,13.5,13.5,0,0,1-6.1,4.42l9.62,14.08Zm.17-26A5,5,0,0,0,71,23.41a7.94,7.94,0,0,0-5-1.41H57.32V33.32H66.1A7.24,7.24,0,0,0,71,31.8a5.12,5.12,0,0,0,1.72-4.05Z"/><path class="cls-1" d="M89.35,53.59V14.18H119v7.71H97.91v8h18.58V37.6H97.91v8.28H119.3v7.71Z"/><path class="cls-1" d="M146.83,37.88V53.59h-8.67V38.05L123,14.18h10.13L142.55,30l9.57-15.82H162Z"/><path class="cls-1" d="M201.55,53.59h-4.79l-4.61-10.42H170.7L166,53.59h-4.56l18-39.69h4.16Zm-20.1-34.46-9,20.1h18Z"/><path class="cls-1" d="M219.11,53.59h-4.44V18.29H201.44V14.18h30.9v4.11H219.11Z"/><path class="cls-1" d="M321.2,42.78H321L306.62,21.72V53.59h-4.34V14.18h4.51l14.35,21.5,14.36-21.5H340V53.59h-4.45V21.67Z"/><path class="cls-1" d="M265.07,60.51a29.18,29.18,0,1,1,20.59-49.82L283.31,13a25.87,25.87,0,0,0-40.69,31.23A25.87,25.87,0,0,0,278,53.73,25.9,25.9,0,0,0,290,24.63l3.21-.86a29.2,29.2,0,0,1-28.15,36.74Z"/><path class="cls-1" d="M270.26,50.91l-.86-3.21a16.61,16.61,0,0,0,4.09-1.7,16.93,16.93,0,1,0-12.86,1.7l-.86,3.2a20.18,20.18,0,1,1,10.49,0Z"/><path class="cls-1" d="M265,42.7a11.37,11.37,0,0,1-11-14.31l3.21.85A8,8,0,1,0,261,24.35a8.13,8.13,0,0,0-1.67,1.28L257,23.28a11.6,11.6,0,0,1,2.36-1.8A11.38,11.38,0,1,1,265,42.7Z"/></svg>